<svg xmlns="http://www.w3.org/2000/svg" version="1.1" xmlns:xlink="http://www.w3.org/1999/xlink" viewBox="0 0 200 200"><rect width="200" height="200" fill="url('#gradient')"></rect><defs><linearGradient id="gradient" gradientTransform="rotate(45 0.5 0.5)"><stop offset="0%" stop-color="#e2e1ba"></stop><stop offset="100%" stop-color="#fff8ea"></stop></linearGradient></defs><g><g fill="#e59730" transform="matrix(4.190043191634462,0,0,4.190043191634462,7.187218315318432,129.79546380980662)" stroke="#44ebe1" stroke-width="0.5"><path d="M9.17-4.81L12.58-4.81Q12.51-3.33 11.78-2.19Q11.04-1.05 9.72-0.43Q8.40 0.20 6.70 0.20L6.70 0.20Q3.90 0.20 2.29-1.63Q0.67-3.46 0.67-6.79L0.67-6.79L0.67-7.49Q0.67-9.58 1.40-11.15Q2.13-12.71 3.50-13.57Q4.86-14.42 6.66-14.42L6.66-14.42Q9.25-14.42 10.82-13.06Q12.39-11.70 12.61-9.31L12.61-9.31L9.19-9.31Q9.15-10.61 8.54-11.17Q7.92-11.74 6.66-11.74L6.66-11.74Q5.38-11.74 4.79-10.78Q4.19-9.82 4.16-7.72L4.16-7.72L4.16-6.72Q4.16-4.44 4.73-3.47Q5.30-2.49 6.70-2.49L6.70-2.49Q7.88-2.49 8.51-3.05Q9.13-3.60 9.17-4.81L9.17-4.81ZM23.29 0L20 0Q19.82-0.32 19.69-0.95L19.69-0.95Q18.78 0.20 17.15 0.20L17.15 0.20Q15.65 0.20 14.61-0.71Q13.56-1.61 13.56-2.98L13.56-2.98Q13.56-4.70 14.83-5.58Q16.10-6.46 18.53-6.46L18.53-6.46L19.54-6.46L19.54-7.01Q19.54-8.47 18.28-8.47L18.28-8.47Q17.11-8.47 17.11-7.31L17.11-7.31L13.82-7.31Q13.82-8.85 15.12-9.80Q16.43-10.76 18.45-10.76Q20.47-10.76 21.64-9.78Q22.81-8.79 22.84-7.07L22.84-7.07L22.84-2.39Q22.86-0.94 23.29-0.17L23.29-0.17L23.29 0ZM17.94-2.15L17.94-2.15Q18.55-2.15 18.96-2.41Q19.37-2.68 19.54-3.01L19.54-3.01L19.54-4.70L18.58-4.70Q16.87-4.70 16.87-3.15L16.87-3.15Q16.87-2.71 17.17-2.43Q17.47-2.15 17.94-2.15ZM30.20-2.97L30.20-2.97Q30.20-3.39 29.76-3.64Q29.32-3.90 28.09-4.17Q26.86-4.44 26.05-4.89Q25.25-5.33 24.83-5.97Q24.41-6.60 24.41-7.42L24.41-7.42Q24.41-8.88 25.62-9.82Q26.82-10.76 28.76-10.76L28.76-10.76Q30.85-10.76 32.12-9.81Q33.39-8.87 33.39-7.32L33.39-7.32L30.09-7.32Q30.09-8.59 28.75-8.59L28.75-8.59Q28.23-8.59 27.88-8.31Q27.53-8.02 27.53-7.59L27.53-7.59Q27.53-7.15 27.96-6.88Q28.39-6.60 29.33-6.43Q30.27-6.25 30.99-6.01L30.99-6.01Q33.37-5.19 33.37-3.07L33.37-3.07Q33.37-1.62 32.08-0.71Q30.80 0.20 28.76 0.20L28.76 0.20Q27.40 0.20 26.34-0.29Q25.27-0.78 24.68-1.62Q24.08-2.46 24.08-3.39L24.08-3.39L27.16-3.39Q27.18-2.66 27.65-2.32Q28.12-1.98 28.85-1.98L28.85-1.98Q29.52-1.98 29.86-2.26Q30.20-2.53 30.20-2.97ZM40.44-2.97L40.44-2.97Q40.44-3.39 40-3.64Q39.56-3.90 38.33-4.17Q37.10-4.44 36.30-4.89Q35.50-5.33 35.08-5.97Q34.66-6.60 34.66-7.42L34.66-7.42Q34.66-8.88 35.86-9.82Q37.06-10.76 39.00-10.76L39.00-10.76Q41.09-10.76 42.36-9.81Q43.63-8.87 43.63-7.32L43.63-7.32L40.33-7.32Q40.33-8.59 38.99-8.59L38.99-8.59Q38.48-8.59 38.13-8.31Q37.77-8.02 37.77-7.59L37.77-7.59Q37.77-7.15 38.20-6.88Q38.63-6.60 39.58-6.43Q40.52-6.25 41.23-6.01L41.23-6.01Q43.61-5.19 43.61-3.07L43.61-3.07Q43.61-1.62 42.33-0.71Q41.04 0.20 39.00 0.20L39.00 0.20Q37.65 0.20 36.58-0.29Q35.52-0.78 34.92-1.62Q34.33-2.46 34.33-3.39L34.33-3.39L37.40-3.39Q37.42-2.66 37.89-2.32Q38.36-1.98 39.09-1.98L39.09-1.98Q39.77-1.98 40.10-2.26Q40.44-2.53 40.44-2.97Z"></path></g></g></svg>